<svg xmlns="http://www.w3.org/2000/svg" xmlns:xlink="http://www.w3.org/1999/xlink" width="55" height="55" viewBox="0 0 55 55">
  <defs>
    <linearGradient id="linear-gradient" x1="0.5" x2="0.5" y2="1" gradientUnits="objectBoundingBox">
      <stop offset="0" stop-color="#ff9276"/>
      <stop offset="1" stop-color="#ff857d"/>
    </linearGradient>
    <clipPath id="clip-Artboard_1">
      <rect width="55" height="55"/>
    </clipPath>
  </defs>
  <g id="Artboard_1" data-name="Artboard – 1" clip-path="url(#clip-Artboard_1)">
    <rect width="55" height="55" fill="#fff"/>
    <g id="vector">
      <g id="Group_5" data-name="Group 5">
        <g id="Group_4" data-name="Group 4">
          <path id="Path_19" data-name="Path 19" d="M53.132,0H46.611a1.6,1.6,0,0,0-1.6,1.6v1.6H31.883a4.782,4.782,0,0,0-9.031,0H9.728V1.6A1.6,1.6,0,0,0,8.125,0H1.6A1.6,1.6,0,0,0,0,1.6V8.018a1.6,1.6,0,0,0,1.6,1.6H8.125a1.6,1.6,0,0,0,1.6-1.6V6.393h6.586A20.919,20.919,0,0,0,6.641,22.815a4.8,4.8,0,1,0,3.2.072A17.6,17.6,0,0,1,23.11,7a4.77,4.77,0,0,0,8.515,0A17.6,17.6,0,0,1,44.894,22.888a4.824,4.824,0,1,0,3.2-.072,20.881,20.881,0,0,0-9.673-16.4h6.586v1.6a1.6,1.6,0,0,0,1.6,1.6h6.521a1.6,1.6,0,0,0,1.6-1.6V1.6A1.6,1.6,0,0,0,53.132,0Z" fill="url(#linear-gradient)"/>
        </g>
      </g>
      <g id="Group_7" data-name="Group 7" transform="translate(16.388 48.214)">
        <g id="Group_6" data-name="Group 6">
          <path id="Path_20" data-name="Path 20" d="M175.183,455.532a6.521,6.521,0,0,0-6.1-4.532h-9.621a6.521,6.521,0,0,0-6.1,4.532,1.58,1.58,0,0,0,1.56,1.989h18.7A1.58,1.58,0,0,0,175.183,455.532Z" transform="translate(-153.294 -451)" fill="url(#linear-gradient)"/>
        </g>
      </g>
      <g id="Group_9" data-name="Group 9" transform="translate(12.936 14.054)">
        <g id="Group_8" data-name="Group 8">
          <path id="Path_21" data-name="Path 21" d="M149.595,150.3l-12.559-18.839v15.213a4.811,4.811,0,1,1-3.207,0V131.459L121.269,150.3a1.6,1.6,0,0,0,.2,2.023,20.249,20.249,0,0,1,5.552,10.8,9.549,9.549,0,0,1,3.6-.713h9.621a9.551,9.551,0,0,1,3.6.713,20.248,20.248,0,0,1,5.552-10.8A1.6,1.6,0,0,0,149.595,150.3Z" transform="translate(-121 -131.459)" fill="url(#linear-gradient)"/>
        </g>
      </g>
      <g id="Group_11" data-name="Group 11" transform="translate(25.764 32.179)">
        <g id="Group_10" data-name="Group 10">
          <path id="Path_22" data-name="Path 22" d="M242.6,301a1.6,1.6,0,1,0,1.6,1.6A1.6,1.6,0,0,0,242.6,301Z" transform="translate(-241 -301)" fill="url(#linear-gradient)"/>
        </g>
      </g>
    </g>
  </g>
</svg>
