<?xml version="1.0" encoding="utf-8"?>
<!-- Generator: Adobe Illustrator 23.0.6, SVG Export Plug-In . SVG Version: 6.00 Build 0)  -->
<svg version="1.1" id="Layer_1" xmlns="http://www.w3.org/2000/svg" xmlns:xlink="http://www.w3.org/1999/xlink" x="0px" y="0px"
	 viewBox="0 0 480 480" style="enable-background:new 0 0 480 480;" xml:space="preserve">
<style type="text/css">
	.st0{fill:#FFFFFF;}
</style>
<g>
	<path class="st0" d="M368,368h-16v32H208v16h144v24c0,13.3-10.7,24-24,24H152c-8.6,0-16.5-4.6-20.8-12l-13.9,8
		c7.2,12.4,20.4,20,34.7,20h176c22.1,0,40-17.9,40-40V368z"/>
	<path class="st0" d="M280,216v-16h-24.4c-4-51.1-44.5-91.6-95.6-95.6V80h-16v24.4c-5.4,0.4-10.7,1.3-16,2.5V64h128V48H128v-8
		c0-13.3,10.7-24,24-24h176c5.8,0,11.5,2.1,15.9,6l10.6-12C347.2,3.6,337.7,0,328,0H152c-22.1,0-40,17.9-40,40v72
		c-36,15.1-60.6,49.1-63.6,88H24v16h24.4c3.8,51.1,44.4,91.8,95.6,95.6V336h16v-24.4c51.1-3.8,91.8-44.5,95.6-95.6H280z M144,280
		v15.6c-11.2-1-22-4.1-32-9.2V272c0-22.1,17.9-40,40-40s40,17.9,40,40v14.4c-10,5.1-20.8,8.2-32,9.3V280H144z M128,192
		c0-13.3,10.7-24,24-24s24,10.7,24,24s-10.7,24-24,24S128,205.3,128,192z M210.7,273.6c-0.9,0.8-1.8,1.4-2.7,2.2V272
		c0-20.9-11.7-40-30.2-49.7c12.9-10.8,17.6-28.5,11.8-44.3c-5.8-15.8-20.8-26.3-37.6-26.3s-31.8,10.5-37.6,26.3
		c-5.8,15.8-1,33.5,11.8,44.3C107.7,232,96,251.1,96,272v3.8c-0.9-0.7-1.8-1.4-2.7-2.2c-16.6-14.9-26.9-35.5-28.9-57.6H80v-16H64.4
		c3.9-42.2,37.4-75.7,79.6-79.6V136h16v-15.6c42.2,3.9,75.7,37.4,79.6,79.6H224v16h15.6C237.6,238.2,227.2,258.8,210.7,273.6
		L210.7,273.6z"/>
	<path class="st0" d="M456,144c4.4,0,8-3.6,8-8V40c0-4.4-3.6-8-8-8H280c-4.4,0-8,3.6-8,8v96c0,4.4,3.6,8,8,8H456z M288,48h160v80
		H288V48z"/>
	<path class="st0" d="M304,64h32v16h-32V64z"/>
	<path class="st0" d="M352,64h80v16h-80V64z"/>
	<path class="st0" d="M304,96h128v16H304V96z"/>
	<path class="st0" d="M454.6,160c-6.2,0-12.2,2.3-16.8,6.4L368,227.9V160h-16v80h2.3l-45.5,40.2c-29.6,1.7-52.8,26.2-52.8,55.8v14.1
		c0,7.9-4.5,15.2-11.6,18.7c-3.3,1.7-5.1,5.4-4.2,9s4.1,6.2,7.8,6.2h56c29.7,0,54.1-23.2,55.8-52.8l113.8-129
		c6.6-7.5,8.2-18.2,4.1-27.3C473.6,165.9,464.6,160,454.6,160z M304,368h-36.6c3-5.5,4.6-11.6,4.6-17.9V336
		c0-20.8,16-38.2,36.8-39.9l35.1,35.1C342.2,352,324.8,368,304,368z M461.6,191.6l-110,124.7l-28-28l124.7-110
		c3.7-3.3,9.4-3.1,12.9,0.4C464.7,182.3,464.9,187.9,461.6,191.6z"/>
	<path class="st0" d="M8,440h176c4.4,0,8-3.6,8-8v-64c0-4.4-3.6-8-8-8h-56v-40h-16v40H8c-4.4,0-8,3.6-8,8v64C0,436.4,3.6,440,8,440z
		 M16,376h160v48H16V376z"/>
	<path class="st0" d="M32,392h40v16H32V392z"/>
	<path class="st0" d="M88,392h72v16H88V392z"/>
	<path class="st0" d="M8,112h80c4.4,0,8-3.6,8-8V40c0-4.4-3.6-8-8-8H8c-4.4,0-8,3.6-8,8v64C0,108.4,3.6,112,8,112z M16,48h64v48H16
		V48z"/>
</g>
</svg>
